<svg width="16" height="15" viewBox="0 0 16 15" fill="none" xmlns="http://www.w3.org/2000/svg">
<path d="M15.0728 12.473L12.9177 14.5709C12.5996 14.891 12.178 14.9995 11.7673 15C9.95131 14.9466 8.23476 14.0712 6.82537 13.1723C4.51193 11.5207 2.38925 9.47275 1.05702 6.9979C0.546065 5.96011 -0.0534703 4.63597 0.00381085 3.47761C0.00891864 3.04186 0.128576 2.6142 0.441298 2.33332L2.59633 0.219561C3.04383 -0.153977 3.47659 -0.0248268 3.76296 0.410273L5.49669 3.63655C5.67917 4.01876 5.57449 4.42829 5.30224 4.7014L4.50827 5.48015C4.45926 5.54604 4.42805 5.62104 4.42726 5.70266C4.73172 6.85919 5.65406 7.92515 6.46887 8.65874C7.28365 9.39234 8.15947 10.3862 9.29633 10.6215C9.43685 10.66 9.60897 10.6735 9.70951 10.5818L10.6331 9.65997C10.9515 9.42316 11.4112 9.30741 11.7511 9.50105H11.7673L14.8945 11.3128C15.3536 11.5952 15.4015 12.141 15.0728 12.473Z" fill="#333333"/>
</svg>
