<svg width="22" height="22" viewBox="0 0 22 22" fill="none" xmlns="http://www.w3.org/2000/svg">
<path d="M18.7857 16.059H6.8903L3.39166 1.79214H1.29248M4.09139 4.50964H20.8849L18.7857 13.3415H6.19057L4.09139 4.50964ZM19.8168 19.1035C19.8168 19.8539 19.1902 20.4622 18.4174 20.4622C17.6445 20.4622 17.0179 19.8539 17.0179 19.1035C17.0179 18.353 17.6445 17.7447 18.4174 17.7447C19.1902 17.7447 19.8168 18.353 19.8168 19.1035ZM10.7202 19.1035C10.7202 19.8539 10.0937 20.4622 9.3208 20.4622C8.54792 20.4622 7.92137 19.8539 7.92137 19.1035C7.92137 18.353 8.54792 17.7447 9.3208 17.7447C10.0937 17.7447 10.7202 18.353 10.7202 19.1035Z" stroke="#333333" stroke-width="2" stroke-linecap="round" stroke-linejoin="round"/>
</svg>
