<svg width="27" height="27" viewBox="0 0 27 27" fill="none" xmlns="http://www.w3.org/2000/svg">
<path d="M0 6.75H6.75V0H0V6.75ZM1.6875 1.6875H5.0625V5.0625H1.6875V1.6875Z" fill="#333333"/>
<path d="M0 16.875H6.75V10.125H0V16.875ZM1.6875 11.8125H5.0625V15.1875H1.6875V11.8125Z" fill="#333333"/>
<path d="M0 27H6.75V20.25H0V27ZM1.6875 21.9375H5.0625V25.3125H1.6875V21.9375Z" fill="#333333"/>
<path d="M10.125 6.75H16.875V0H10.125V6.75ZM11.8125 1.6875H15.1875V5.0625H11.8125V1.6875Z" fill="#333333"/>
<path d="M10.125 16.875H16.875V10.125H10.125V16.875ZM11.8125 11.8125H15.1875V15.1875H11.8125V11.8125Z" fill="#333333"/>
<path d="M10.125 27H16.875V20.25H10.125V27ZM11.8125 21.9375H15.1875V25.3125H11.8125V21.9375Z" fill="#333333"/>
<path d="M20.25 0V6.75H27V0H20.25ZM25.3125 5.0625H21.9375V1.6875H25.3125V5.0625Z" fill="#333333"/>
<path d="M20.25 16.875H27V10.125H20.25V16.875ZM21.9375 11.8125H25.3125V15.1875H21.9375V11.8125Z" fill="#333333"/>
<path d="M20.25 27H27V20.25H20.25V27ZM21.9375 21.9375H25.3125V25.3125H21.9375V21.9375Z" fill="#333333"/>
</svg>
