<svg width="29" height="28" viewBox="0 0 29 28" fill="none" xmlns="http://www.w3.org/2000/svg">
<path d="M14.5846 7.22779C10.6874 7.22779 7.54222 10.3709 7.54222 14.2655C7.54222 18.1601 10.6874 21.3033 14.5846 21.3033C18.4818 21.3033 21.627 18.1601 21.627 14.2655C21.627 10.3709 18.4818 7.22779 14.5846 7.22779ZM14.5846 18.8396C12.0643 18.8396 10.0076 16.7842 10.0076 14.2655C10.0076 11.7469 12.0643 9.69151 14.5846 9.69151C17.1049 9.69151 19.1616 11.7469 19.1616 14.2655C19.1616 16.7842 17.1049 18.8396 14.5846 18.8396ZM21.9154 5.29936C21.0055 5.29936 20.2707 6.03367 20.2707 6.94298C20.2707 7.8523 21.0055 8.58661 21.9154 8.58661C22.8253 8.58661 23.5601 7.85573 23.5601 6.94298C23.5604 6.72706 23.518 6.51321 23.4355 6.31367C23.3529 6.11414 23.2318 5.93284 23.079 5.78016C22.9262 5.62748 22.7448 5.50642 22.5451 5.42392C22.3454 5.34141 22.1315 5.29909 21.9154 5.29936ZM28.3122 14.2655C28.3122 12.3714 28.3294 10.4945 28.223 8.60377C28.1165 6.40769 27.6152 4.45867 26.0083 2.85279C24.3979 1.24347 22.451 0.745925 20.2535 0.639553C18.3582 0.53318 16.48 0.550337 14.588 0.550337C12.6927 0.550337 10.8145 0.53318 8.92254 0.639553C6.72502 0.745925 4.77472 1.24691 3.16778 2.85279C1.55741 4.4621 1.05953 6.40769 0.953089 8.60377C0.846646 10.4979 0.863814 12.3748 0.863814 14.2655C0.863814 16.1562 0.846646 18.0366 0.953089 19.9273C1.05953 22.1234 1.56084 24.0724 3.16778 25.6783C4.77815 27.2876 6.72502 27.7851 8.92254 27.8915C10.8179 27.9979 12.6961 27.9807 14.588 27.9807C16.4834 27.9807 18.3616 27.9979 20.2535 27.8915C22.451 27.7851 24.4013 27.2842 26.0083 25.6783C27.6187 24.069 28.1165 22.1234 28.223 19.9273C28.3328 18.0366 28.3122 16.1597 28.3122 14.2655ZM25.2906 22.3567C25.04 22.9812 24.7378 23.4479 24.2537 23.9283C23.7696 24.4121 23.306 24.7141 22.6811 24.9646C20.875 25.6817 16.5864 25.5204 14.5846 25.5204C12.5828 25.5204 8.29075 25.6817 6.48466 24.968C5.85974 24.7175 5.39277 24.4155 4.91206 23.9317C4.42792 23.4479 4.12576 22.9847 3.87511 22.3601C3.16091 20.5518 3.32229 16.266 3.32229 14.2655C3.32229 12.265 3.16091 7.97583 3.87511 6.17093C4.12576 5.54642 4.42792 5.07975 4.91206 4.59936C5.3962 4.11896 5.85974 3.81357 6.48466 3.56308C8.29075 2.84936 12.5828 3.01063 14.5846 3.01063C16.5864 3.01063 20.8784 2.84936 22.6845 3.56308C23.3094 3.81357 23.7764 4.11553 24.2571 4.59936C24.7413 5.08318 25.0434 5.54642 25.2941 6.17093C26.0083 7.97583 25.8469 12.265 25.8469 14.2655C25.8469 16.266 26.0083 20.5518 25.2906 22.3567Z" fill="#333333"/>
</svg>
