<svg width="16" height="12" viewBox="0 0 16 12" fill="none" xmlns="http://www.w3.org/2000/svg">
<path d="M14.7393 0H0.545899C0.243949 0 0 0.24375 0 0.545455V11.4545C0 11.7563 0.243949 12 0.545899 12H14.7393C15.0412 12 15.2852 11.7563 15.2852 11.4545V0.545455C15.2852 0.24375 15.0412 0 14.7393 0ZM14.0569 1.88864V10.7727H1.22827V1.88864L0.757435 1.52216L1.42787 0.661364L2.15801 1.22898H13.1289L13.859 0.661364L14.5294 1.52216L14.0569 1.88864ZM13.1289 1.22727L7.64259 5.48864L2.1563 1.22727L1.42616 0.659659L0.755729 1.52045L1.22657 1.88693L7.05404 6.4142C7.22163 6.5443 7.42781 6.61492 7.64003 6.61492C7.85225 6.61492 8.05843 6.5443 8.22602 6.4142L14.0569 1.88864L14.5277 1.52216L13.8573 0.661364L13.1289 1.22727Z" fill="#333333"/>
</svg>
