<svg width="9" height="10" viewBox="0 0 9 10" fill="none" xmlns="http://www.w3.org/2000/svg">
<path d="M8.64691 8.1608C8.42115 7.59946 8.09353 7.08958 7.68229 6.65955C7.27231 6.22828 6.78664 5.88443 6.25212 5.64699C6.24733 5.64447 6.24254 5.64322 6.23775 5.6407C6.98336 5.07538 7.46807 4.15452 7.46807 3.11558C7.46807 1.39447 6.13962 0 4.5 0C2.86038 0 1.53193 1.39447 1.53193 3.11558C1.53193 4.15452 2.01664 5.07538 2.76225 5.64196C2.75746 5.64447 2.75267 5.64573 2.74788 5.64824C2.21172 5.88568 1.7306 6.22613 1.31771 6.6608C0.906857 7.09117 0.579287 7.60097 0.353086 8.16206C0.130867 8.71137 0.0110189 9.30031 2.99272e-05 9.89699C-0.000289505 9.91039 0.00195094 9.92373 0.00661931 9.93622C0.0112877 9.9487 0.0182895 9.96008 0.0272121 9.96968C0.0361348 9.97928 0.0467978 9.98691 0.0585728 9.99212C0.0703478 9.99732 0.0829967 10 0.095774 10H0.813854C0.866514 10 0.908402 9.95603 0.909598 9.90201C0.933534 8.93216 1.30454 8.02387 1.96039 7.33543C2.63897 6.62312 3.54017 6.23116 4.5 6.23116C5.45983 6.23116 6.36102 6.62312 7.03961 7.33543C7.69546 8.02387 8.06647 8.93216 8.0904 9.90201C8.0916 9.95729 8.13349 10 8.18615 10H8.90423C8.917 10 8.92965 9.99732 8.94143 9.99212C8.9532 9.98691 8.96387 9.97928 8.97279 9.96968C8.98171 9.96008 8.98871 9.9487 8.99338 9.93622C8.99805 9.92373 9.00029 9.91039 8.99997 9.89699C8.988 9.29648 8.86952 8.71231 8.64691 8.1608ZM4.5 5.27638C3.95067 5.27638 3.43365 5.05151 3.04469 4.64322C2.65573 4.23492 2.4415 3.69221 2.4415 3.11558C2.4415 2.53894 2.65573 1.99623 3.04469 1.58794C3.43365 1.17965 3.95067 0.954774 4.5 0.954774C5.04933 0.954774 5.56635 1.17965 5.95531 1.58794C6.34427 1.99623 6.5585 2.53894 6.5585 3.11558C6.5585 3.69221 6.34427 4.23492 5.95531 4.64322C5.56635 5.05151 5.04933 5.27638 4.5 5.27638Z" fill="#333333"/>
</svg>
