<svg width="22" height="27" viewBox="0 0 22 27" fill="none" xmlns="http://www.w3.org/2000/svg">
<path d="M8.8512 18.0759C8.14588 21.7047 7.28636 25.1832 4.73728 27.0002C3.95151 21.5162 5.89181 17.3987 6.79424 13.0268C5.25622 10.4838 6.97929 5.36881 10.2203 6.62977C14.2095 8.17929 6.76609 16.0797 11.7623 17.0679C16.9798 18.097 19.1092 8.17402 15.8736 4.94717C11.2005 0.285435 2.26866 4.83781 3.36821 11.5115C3.63505 13.1428 5.35008 13.6369 4.05342 15.8887C1.06184 15.2378 0.168792 12.9188 0.28411 9.82763C0.469156 4.76797 4.90892 1.22753 9.36343 0.736061C14.9966 0.115463 20.2838 2.76915 21.0146 7.97506C21.8366 13.853 18.4723 20.2197 12.4475 19.7612C10.8143 19.636 10.1304 18.8401 8.8512 18.0759Z" fill="#333333"/>
</svg>
