<svg width="26" height="23" viewBox="0 0 26 23" fill="none" xmlns="http://www.w3.org/2000/svg">
<path d="M18.3398 21.1495V19.0131C18.3398 17.8799 17.8831 16.7931 17.0701 15.9918C16.2571 15.1905 15.1545 14.7403 14.0048 14.7403H5.33495C4.18525 14.7403 3.08264 15.1905 2.26968 15.9918C1.45672 16.7931 1 17.8799 1 19.0131V21.1495M24.8422 21.1495V19.0131C24.8415 18.0664 24.5218 17.1467 23.9333 16.3985C23.3449 15.6503 22.521 15.1159 21.591 14.8792M17.256 2.0608C18.1885 2.29613 19.015 2.83065 19.6052 3.58011C20.1954 4.32957 20.5158 5.25133 20.5158 6.20007C20.5158 7.14882 20.1954 8.07057 19.6052 8.82003C19.015 9.56949 18.1885 10.104 17.256 10.3393M14.0048 6.19473C14.0048 8.55453 12.064 10.4675 9.66989 10.4675C7.27577 10.4675 5.33495 8.55453 5.33495 6.19473C5.33495 3.83493 7.27577 1.92194 9.66989 1.92194C12.064 1.92194 14.0048 3.83493 14.0048 6.19473Z" stroke="#333333" stroke-width="2" stroke-linecap="round" stroke-linejoin="round"/>
</svg>
