<svg width="24" height="25" viewBox="0 0 24 25" fill="none" xmlns="http://www.w3.org/2000/svg">
<path fill-rule="evenodd" clip-rule="evenodd" d="M17.1732 15.9326L23.6123 22.3718C23.8386 22.5983 23.9657 22.9054 23.9656 23.2256C23.9655 23.5458 23.8382 23.8528 23.6117 24.0791C23.3852 24.3055 23.0781 24.4326 22.7579 24.4325C22.4377 24.4323 22.1307 24.305 21.9044 24.0786L15.4653 17.6393C13.5404 19.1302 11.1198 19.8319 8.69601 19.6014C6.2722 19.371 4.02721 18.2258 2.41774 16.3989C0.808264 14.5719 -0.0447848 12.2004 0.0321268 9.76685C0.109038 7.33326 1.11013 5.02038 2.83176 3.29871C4.55338 1.57705 6.8662 0.575929 9.29973 0.499015C11.7333 0.422102 14.1047 1.27517 15.9316 2.88468C17.7585 4.49419 18.9036 6.73924 19.1341 9.16312C19.3645 11.587 18.6629 14.0076 17.172 15.9326H17.1732ZM9.60308 17.2503C11.5076 17.2503 13.3342 16.4937 14.6809 15.147C16.0276 13.8002 16.7842 11.9736 16.7842 10.069C16.7842 8.16441 16.0276 6.33781 14.6809 4.99106C13.3342 3.6443 11.5076 2.8877 9.60308 2.8877C7.69852 2.8877 5.87197 3.6443 4.52525 4.99106C3.17853 6.33781 2.42195 8.16441 2.42195 10.069C2.42195 11.9736 3.17853 13.8002 4.52525 15.147C5.87197 16.4937 7.69852 17.2503 9.60308 17.2503ZM13.1936 11.2659H10.7999V13.6597C10.7999 13.9771 10.6738 14.2815 10.4494 14.506C10.2249 14.7304 9.9205 14.8566 9.60308 14.8566C9.28565 14.8566 8.98123 14.7304 8.75677 14.506C8.53232 14.2815 8.40622 13.9771 8.40622 13.6597V11.2659H6.01251C5.69509 11.2659 5.39066 11.1398 5.16621 10.9153C4.94175 10.6909 4.81566 10.3864 4.81566 10.069C4.81566 9.75158 4.94175 9.44714 5.16621 9.22268C5.39066 8.99822 5.69509 8.87212 6.01251 8.87212H8.40622V6.47835C8.40622 6.16092 8.53232 5.85649 8.75677 5.63203C8.98123 5.40757 9.28565 5.28147 9.60308 5.28147C9.9205 5.28147 10.2249 5.40757 10.4494 5.63203C10.6738 5.85649 10.7999 6.16092 10.7999 6.47835V8.87212H13.1936C13.5111 8.87212 13.8155 8.99822 14.0399 9.22268C14.2644 9.44714 14.3905 9.75158 14.3905 10.069C14.3905 10.3864 14.2644 10.6909 14.0399 10.9153C13.8155 11.1398 13.5111 11.2659 13.1936 11.2659Z" fill="#4F4F4F"/>
</svg>
